# xmcd
#
# Track frame offsets:
# 150
# 22930
# 49297
# 76072
# 105705
# 124680
# 145210
# 166535
# 202065
# 226852
# 251025
#
# Disc length: 3488 seconds
#
#
# Revision: 2
# Processed by: cddbd v1.5.1PL0 Copyright (c) Steve Scherf et al.
# Submitted via: FreeRIP 2.60 
#
DISCID=870d9e0b
DTITLE=Ellis Marsalis - Ellis Marsalis Trio
DYEAR=1990
DGENRE=Jazz
TTITLE0=Syndrome
TTITLE1=Emily
TTITLE2=Just Squeeze Me
TTITLE3=Little Niles
TTITLE4=Limehouse Blues
TTITLE5=A Moment Alone
TTITLE6=Lil' Boy Man
TTITLE7=Jitterbug Waltz
TTITLE8=The Garden
TTITLE9=Chapter One
TTITLE10=I Thought About You
EXTD=
EXTT0=
EXTT1=
EXTT2=
EXTT3=
EXTT4=
EXTT5=
EXTT6=
EXTT7=
EXTT8=
EXTT9=
EXTT10=
PLAYORDER=
